<svg width="754.108" height="519.701" viewBox="0 0 199.524 137.504" xmlns:xlink="http://www.w3.org/1999/xlink" xmlns="http://www.w3.org/2000/svg"><defs><linearGradient xlink:href="#a" id="b" gradientUnits="userSpaceOnUse" gradientTransform="matrix(.94663 0 0 1 63.169 -42.401)" x1="9.733" y1="58.701" x2="220.506" y2="58.701"/><linearGradient id="a"><stop style="stop-color:#065ad8;stop-opacity:1" offset="0"/><stop style="stop-color:#0876e5;stop-opacity:1" offset="1"/></linearGradient></defs><path style="fill:url(#b);fill-opacity:1;fill-rule:nonzero;stroke:none;stroke-width:5.14884;stroke-linecap:square;stroke-miterlimit:4;stroke-dasharray:none;paint-order:markers fill stroke" d="M72.382 16.299h199.524v137.504H72.382z" transform="translate(-72.382 -16.3)"/><path style="fill:#fff;fill-opacity:.03;fill-rule:nonzero;stroke:none;stroke-width:5.14884;stroke-linecap:square;stroke-miterlimit:4;stroke-dasharray:none;paint-order:markers fill stroke" d="M88.822 16.3c.3.583.625 1.143.99 1.666l-17.43.1v.875l8.347-.036-1.243 16.441-7.104-.207v.932l19.274.488c.322 1.033 1.562 5.155 1.337 6.647-.18 1.195-.895 3.309-1.893 4.748-4.208-1.14-10.203-1.494-18.718-.34v5.419l.63.023s22.129-4.026 21.34 6.885c-.79 10.912-1.163 14.967-1.163 14.967s-.452 4.843-5.066 9.717l.03-.148-9.922-31.968-1.282.12 10.198 32.964c-2.998 2.81-7.469 5.524-14.135 7.21-.235.059-.405.107-.63.164v3.907l.63.074 9.222-2.144 1.438 7.933-8.072 1.084-3.218-1.933v1.92l10.224 6.094-9.594 2.124-.63 1.248v5.476l8.2-1.84-7.57 7.167-.63 1.387v.804l10.338-9.837 6.936-1.557 3.036 4.264-1.641 4.401c-5.345-.96-6.254 2.197-6.254 2.197l-2.515 6.894-9.9-4.109v1.155l9.498 4.057-1.394 3.82-8.104-3.18v1.207l7.694 3.095-2.292 6.282-5.402-2.184v1.14l5.007 2.127-2.833 7.764h1.213c1.381-3.786 9.362-25.655 10.19-27.715.823-2.05 3.864-1.612 4.683-1.454l-10.878 29.169h.876l.584-.427 1.659-4.387 5.313 1.538-1.307 3.276h1.178l.509-.427.963-2.46 9.972 2.887h4.467l4.736-12.164 8.661 12.164h5.307l-11.74-16.08 28.953-3.076 5.995 18.737.862.419h4.153l-3-9.16 21.938-1.505.025.153 1.151 10.512h1.294l-1.09-10.76 10.423-.715 1.004 11.475h1.043c-.32-3.691-.848-9.458-1.04-11.544l10.09-.692 1.34 12.236h.957l-.32-3.18c4.965-1.68 9.048.7 10.195 1.478-.528 1.019-.858 1.64-.909 1.702h5.002l3.497-6.91 12.375 5.986-.962.924h1.87l.904-.427 5.74-5.537 12.336 5.537 1.561.427h9.296l-20.148-8.902 14.959-14.432 12.656 18.823a2825.4 2825.4 0 0 0-7.017 4.51h2.988l11.84-7.533 1.004 1.082v-3.71l-.63.404-16.288-17.97 14.257-13.755 2.66 4.834v-3.22l-1.441-2.789 1.442-1.39v-2.033l-15.396 14.784-3.2-4.279 4.456-8.016s1.734-3.363 1.688-8.937l12.452-5.241v-1.49c-2.029.857-10.47 4.418-12.503 5.292-.224-3.622-1.22-8.033-3.788-12.972l10.225-6.344 6.066 6.84v-3.467l-6.581-7.444 6.58-4.196v-1.365l-7.415 4.616-3.168-3.584 10.584-12.64V47.552l-15.22 19.124-16.55-18.723 24.987-17.291 6.783 8.073V32.78l-1.78-2.12 1.78-1.452v-1.781l-2.653 2.192-10.315-12.296c.438-.346.841-.681 1.263-1.023h-11.727c-1.17 1.07-7.546 6.694-18.597 12.135L222.443 16.3h-1.406l7.562 12.758c-6.664 3.16-14.814 6.1-24.235 7.77l-1.187-11.644 12.469-8.884h-1.88l-6.8 4.845-3.821-4.845h-1.918l.964 1.239c-5.84 2.626-6.32 2.628-9.127 3.56-.805.267-2.281.48-3.925.646.046-3.322.929-4.792 1.656-5.445h-1.3c-1.445 1.675-1.436 4.553-1.384 5.54-2.645.231-5.444.351-6.476.39l-.74-5.93h-1.814l.602 5.149-10.093.844.245 2.93-9.5.997-1.034-9.92h-4.465l.02.198-13.75 1.562-.24-1.76h-1.787l1.669 12.783-17.582 2.237-.52-7.086c8.146-3.138 13.563-6.915 14.957-7.934h-2.877c-6.915 5.519-20.024 8.965-22.378 9.552l-1.279-9.552h-1.167l1.213 9.516c-13.719-.382-19.408-7.668-20.634-9.516zm66.173 1.489L156 27.14l-13.426 1.708-1.29-9.482zm47.699.393 3.008 3.861-3.881 2.764 1.33 12.228a92.94 92.94 0 0 1-8.275.979 728.81 728.81 0 0 1-11.182.726l-1.952-15.648c2.215-.087 8.442-.41 11.623-1.375 3.479-1.055 8.18-3.043 9.329-3.535zm-112.204.682a16.776 16.776 0 0 0 2.797 2.691l-1.632 14.146-11.083-.323L81.857 18.9zm165.394.802 8.214 9.776-32.199 22.39-2.449-3.135c.829-.79 1.77-2.61-1.987-5.395-2.231-1.653-2.45-4.255-2.25-6.127 12.147-5.094 22.617-11.518 30.671-17.51zM94.351 22.319c6.703 4.474 15.791 4.9 16.947 4.936l.762 5.98-19.243 2.437zm85.499.562 1.866 15.968c-3.44.187-6.674.34-9.673.458l-1.307-15.671zm-58.687 1.904.438 6.733-8.353 1.063-.717-5.361a62.87 62.87 0 0 0 8.632-2.435zm48.782 1.745.338 4.039c-.719.081-7.335.83-9.384 1.066l-.43-4.121zm-13.777 2.19 1.177 10.972c-7.032.08-11.551-.03-13.31-.091l-1.254-9.218zm-15.221 1.891.53 4.056-9.268.23-.272-3.167zm-10.49 1.303c.374 4.547.793 9.09 1.153 13.639 0 0-9.397.686-16.475 1.134l-1.694-12.66zm39.945.08.614 7.35a550.48 550.48 0 0 1-9.285.275l-.692-6.644zm-58.22 2.189 1.61 12.643-20.864 1.705c-.212-.079-.456-.144-.679-.218.555-.87 1.657-2.855 1.758-5.034.083-1.785-.824-5.448-1.159-6.728zm29.51 2.144.223 3.526c.23 3.542-2.984 4.985-9 5.43-.17-2.694-.557-8.65-.557-8.65zm82.492 1.275c-.119 2.02.202 4.732 2.389 6.266 3.787 2.655 2.247 4.023 2.247 4.023l-14.508 7.572-2.226-13.734a56.466 56.466 0 0 0 4.965-1.433c2.434-.84 4.812-1.742 7.133-2.694zm-13.541 4.466c.21 1.275.602 3.731 1.02 6.355l-5.471 2.3-1.133-7.563c1.953-.334 3.826-.696 5.584-1.092zm-6.994 1.323 1.993 13.284-6.363.655-.236-6.298-9.459.855-.49-6.722c5.046-.46 10-1.041 14.555-1.774zm-15.912 1.896.514 6.72-14.548 1.317-.703-7.056a396.53 396.53 0 0 0 14.737-.981zm-16.449 1.057.247 2.466-8.764.796-.304-2.928a541.31 541.31 0 0 0 8.821-.334zm-31.163.243.103 10.277-21.964 1.415-2.772-10.204zm17.982.198.835 7.78-12.257 1.027.039-8.68a496.46 496.46 0 0 0 11.383-.127zm-44.093 1.41 2.898 10.438-16.465 4.461.371-3.183s1.223-6.324-5.285-10.154zm124.158 1.118 7.768 8.762-6.73 5.929 7.024 10.083 7.608-7.1 1.37 1.545-8.98 11.284s-4.225 5.31-7.978 9.566L221.16 78.01l-5.297-14.957-.984-4.6.026-.004 13.386-7.49 2.637 3.366zm-26.339.179 1.022 6.441-5.794.597-.704-4.697zm-40.174.556L172 53.47l-8.75.734-.347-3.328zm26.56 2.257.224 5.111-3.57.368-.442-5.147zm-5.218.457.422 5.171-7.83.806-.325-5.3zm-8.612.754.351 5.31-10.383 1.069-.543-5.452zm-12.276 1.07.548 5.483-8.706.896-.59-5.657zm-13.053 1.078.68 6.332-12.874 1.989-.205-3.09.019-4.21zm54.251 2.948.747 3.543-5.442 4.625-.96-7.593zm33.396.328 6.245 7.043-.07-.05-6.381 6.326-5.932-8.117zm-40.353.38 1.043 7.982-20.942 1.773-.544-7.677zm-61.184 1.67.22 3.223c-4.135.64-8.802 1.36-8.893 1.374l6.952 23.116-7.922 3.136c-.372-1.227-1.282-4.178-1.735-5.24-.577-1.351-1.87-.889-1.87-.889l-3.03.867-7.878-24.062-.008-.008zm39.353.55 1.92 24.706-9.359 1.028-2.463-24.727zm-11.597 1.18.793 7.917-8.644 1.078-.845-8.111zm-55.894.462 2.508 7.839-5.59 1.308-2.474-7.487zm42.849.132.958 8.93-13.314 1.66-.58-8.731zm54.97.001 5.104 14.727-.05-.014-5.191 3.02-4.71-3.295-1.173-9.277zM110.178 65.23l6.182 19.029s-15.625 1.267-18.724 1.66l.43-2.411 1.771-15.188zm35.292.155.593 8.702-5.638.703-2.504-8.32zm62.105 3.284.997 7.63-4.65 2.401c-.737-1.409-3.378-1.25-3.378-1.25l-13.442.738-.562-7.92zm-33.706 3.47.683 6.824-8.638.808-.68-6.53zm-53.853.37 5.041 15.758-9.78.209-.5-2.945 3.433-.301-3.786-11.464zm139.798 1.213 5.17 5.83-14.73 9.25-1.035-2.426zm-98.81.058.685 6.386-13.663 1.277-.396-5.957zm-14.833 1.892.403 5.907-3.995.373-1.686-5.606zm61.808 2.264-3.193 6.317-.236.026-.495-4.399zm-8.314.517c2.515-.027 3.104.607 3.232.99l.026.278v.005h.003l.431 4.683-15.69 1.702-.492-6.92c1.456-.105 8.556-.61 12.133-.73.124-.003.244-.006.36-.007zm9.526.536 14.64 9.892-2.545 3.44-14.825-.174-.556-6.702zm11.018.188 4.247 2.798-2.465 4.164-6.046-4.23zm-45.565.704.758 7.578-8.589.944-.803-7.717zm-12.856 1.198.835 7.785-14.003 1.539-.534-8.047zm-15.152 1.412.537 7.887-2.525-1.552-1.8-5.982zm79.221.408 11.448 7.543c-1.61 1.783-3.065 3.282-3.916 3.867-2.934 2.018-12.69 2.774-12.69 2.774l-14.163 1.269.003-4.332 15.408.136 3.775-5.473-.643-.385-1.71-1.197zM113.72 85.624l2.011 12.492c-1.94.32-4.183.648-6.77.976l.03-13.053zm90.794.265.416 6.458-16.719 1.482-.437-6.168zm-97.044.283-.019 13.106c-3.514.424-7.618.846-12.414 1.248l2.398-13.473zm24.534.704c1.019-.02 1.056.778 1.208 1.272a383.25 383.25 0 0 0 1.305 4.091l-3.337 1.322-1.943-5.933c.436-.135 1.007-.314 1.778-.56.406-.13.73-.187.989-.192zm116.288.607 1.374 3.073 4.807-2.983c1.014 1.644 6.565 11.398 2.386 21.684l-13.752-4.68-4.4-5.885c1.879-1.468 2.469-2.71 2.469-2.71zm-61.73.307.478 6.142-9.211.817-.595-5.971zm-95.526.808-2.352 13.467-3.639.488-1.497-8.532zm84.516.358.594 5.942-8.577.76-.603-5.793zm-50.154.374 1.893 5.919c-1.1.525-3.872 1.537-10.41 2.673l-1.448-8.528zm18.115.44 3.742 2.19c-.028.934-.064 4.52.625 7.705-1.217-.027-6.627-.156-8.466-.335-1.945-.188-2.453-1.444-2.734-2.673-.303-1.318-.548-3.09-.646-3.848zm19.265.538 1.27 11.849-13.286 1.19c-.641-.76-2.301-3.516-2.086-11.545zm-27.964 2.998c.124.587.307 1.539.569 3.102.562 3.35 1.902 3.68 2.306 3.761 1.798.363 9.89.61 10.469.628.294 1.014.67 1.953 1.178 2.677l-14.486 1.298-3.317-10.133zm70.766.72.047 4.407-16.986 1.521-.021-.366-.295-4.145zm-18.416 1.512.351 4.517-9.077.813-.456-4.575zm-10.865.893.46 4.587-8.552.766-.484-4.648zm-48.579.16 2.743 8.574-36.84 3.299 1.157-6.498c.585-.058 27.743-2.74 32.94-5.375zm109.89 2.873 14.253 18.788-3.66 6.451-7.61-4.244c-.715-2.593-3.926-13.452-8.086-15.13l.644-3.748c1.875-.643 3.326-1.385 4.458-2.117zm-6.546 2.743-.934 5.529-14.597 1.405-.238-5.16a1849.1 1849.1 0 0 1 8.98-.706c2.639-.195 4.883-.577 6.789-1.068zm-142.6 1.117-.96 5.494-1.309.29-.939-5.35zm-4.572.619.988 5.451-7.589-4.558zm129.947.155.307 5.177-34.504 3.322-.501-5.662a24329.71 24329.71 0 0 1 34.698-2.837zm30.517 2.15 11.969 4.137-3.83 6.751zm-12.154.632c1.2.44 3.728 2.603 6.43 12.486l-10.133-5.65zm-54.29.155.508 5.68-8.983.865-.604-5.798 9.08-.747zm-13.223 1.088.65 6.053-7.135.614-3.646-5.834 10.131-.833zm65.226.823-4.049 7.429-16.065.851-.1-6.34zm-76.652.117 3.778 6.137-16.344 7.427-3.993-12.193c7.65-.633 8.046-.668 16.559-1.371zm-20.996 1.739 7.195 22.491-29.432 3.183-9.105-12.471 11.012-.07.11-11.46 20.22-1.673zm76.044.219.119 6.749-17.15 1.335-.632-6.388zm-97.085 1.523-.033 10.647-10.913-.07-2.336-3.198c3.285-.052 4.704-.174 5.954-1.27 1.361-1.194 1.256-4.046 1.083-5.592 2.791-.23 4.706-.39 6.245-.517zm78.247.285.671 6.364-9.85.767-.548-6.196zm-85.32.3c.388 4.375-.77 4.843-1.378 5.31-.894.688-4.198.58-5.546.504l-3.608-4.941 10.532-.872zm74.371.752.552 6.174-8.893.693-.625-6.006zm49.381.931c2.136 1.122 18.477 10.228 20.237 11.21l1.562 3.02-15.795 15.168-17.696-7.818zm-62.452.429.87 8.1-7.526-7.598zm-7.512 1.073 8.586 8.932.592 5.519-23.05 2.162-2.907-8.88zm67.201 1.39-4.801 8.81c-.7.006-4.055.054-10.389.398l-.132-8.45zm-16.697.923.147 8.36c-4.31.248-9.766.625-16.415 1.2l-.811-8.211zm44.247.718 2.997 3.95-5.166 4.962-1.37-2.543zm-62.456.72.867 8.216c-3.085.272-6.414.586-9.987.948l-.743-8.385zm-96.58.427 4.182 5.874-9.217 23.097-5.337-1.534zm85.499.448.751 8.411a893.95 893.95 0 0 0-8.728.941l-.902-8.65zm75.002 5.94-.04.061 16.01 17.842-5.626 3.605-13.165-18.786zm-37.852.67a63.83 63.83 0 0 1 3.421.092l-4.392 8.059-22.243 1.736-.823-8.328c8.34-.85 17.422-1.576 24.037-1.559zm-117.622.002 9.019 12.666-.049.008-5.168 13.222-12.528-3.601zm92.52 1.667.875 8.297-10.167.793.008-.014-.704-7.952c2.998-.36 6.39-.75 9.987-1.124zm-11.195 1.27.707 7.913-8.642.675-.194-2.052-.564-5.419c1.216-.167 4.227-.572 8.693-1.117zm-12.758 1.498.795 7.404-21.314 1.663-2.247-6.861zm43.676 8.334a2294.01 2294.01 0 0 1-5.391 10.58c-3.474-2.49-7.478-2.66-10.963-1.746l-.772-7.66zm4.802.02 15.134 6.794-5.017 4.819-12.742-6.24 2.691-5.317z" transform="translate(-72.382 -16.3)"/></svg>
