<svg width="113.389" height="113.387" viewBox="0 0 30.001 30" xmlns:xlink="http://www.w3.org/1999/xlink" xmlns="http://www.w3.org/2000/svg"><defs><linearGradient xlink:href="#a" id="b" gradientUnits="userSpaceOnUse" gradientTransform="matrix(.14233 0 0 .21818 116.635 10.976)" x1="9.733" y1="58.701" x2="220.506" y2="58.701"/><linearGradient id="a"><stop style="stop-color:#065ad8;stop-opacity:1" offset="0"/><stop style="stop-color:#0876e5;stop-opacity:1" offset="1"/></linearGradient></defs><path style="fill:url(#b);fill-opacity:1;fill-rule:nonzero;stroke:none;stroke-width:.932556;stroke-linecap:square;stroke-miterlimit:4;stroke-dasharray:none;paint-order:markers fill stroke" d="M123.6 23.783a5.566 5.566 0 0 0-5.58 5.579v15.421h.422a5.567 5.567 0 0 0 5.579-5.579v-7.209c.011-1.17 1.061-2.125 2.213-2.211h21.786v-.432a5.566 5.566 0 0 0-5.578-5.569zm5.652 9a2.227 2.227 0 0 0-2.232 2.232v7.537c0 1.236.996 2.231 2.232 2.231h7.537a2.226 2.226 0 0 0 2.232-2.231v-7.537a2.226 2.226 0 0 0-2.232-2.232zm18.347 0a5.567 5.567 0 0 0-5.579 5.58v7.191c0 1.179-1.057 2.144-2.215 2.23H118.02v.421a5.567 5.567 0 0 0 5.58 5.579h18.842a5.566 5.566 0 0 0 5.578-5.579V32.784Z" transform="translate(-118.02 -23.783)"/></svg>
