<svg version="1.0" xmlns="http://www.w3.org/2000/svg" width="2666.667" height="1662.667" viewBox="0 0 2000 1247"><path d="M962.5 7.6c-2.2.2-9.8.9-17 1.5-62.8 5.2-129.8 22.1-189 47.6C635.8 108.9 536.9 195.8 469 309.5c-7.8 12.9-32 59.7-32 61.6 0 .5 6.9.9 15.3.8h15.2l8.7-17.7c49.8-101.4 133.6-190 233.3-246.5 72.6-41.1 147.6-65.1 233-74.4 12.6-1.4 24.8-1.7 57.5-1.7 44.4 0 55.6.7 90 6 156.8 24.1 298.9 112.6 390.1 242.9 17.2 24.6 35.5 55.8 46.9 79.8l5.5 11.6h15.3c8.3.1 15.2-.3 15.2-.8 0-1.9-24.3-48.7-32-61.6-62-103.6-148.5-184.2-255-237.5-68-34.1-136.6-54-215.5-62.6-14.1-1.5-86.8-2.9-98-1.8zM1010.7 454.4c-8.2 3-10.1 6.7-10.1 20.1 0 12.6 1.7 16.9 8.1 19.7 5.8 2.6 15.7 3.3 23.7 1.8 11.7-2.2 14.6-6.4 14.6-21.2 0-11.2-2.1-16.7-7.2-19.4-4.4-2.4-23.6-3.1-29.1-1zM1542.5 478.9c-6.9 1.7-11.6 5.5-15.1 12.1-1.5 2.9-1.9 6.3-2.2 18.7l-.4 15.3h-11.1c-9.2 0-11.8.4-15.4 2.1-14.6 7-14.5 28.6 0 36.1 3.4 1.7 6.5 2.2 15.5 2.6l11.2.5v54.6c.1 60.1.5 65.1 5.8 75.7 7.4 14.7 19.8 21.5 42 23 14.9 1 27.3-2.3 35.6-9.6 5.1-4.5 6.6-7.9 6.6-14.7 0-6.9-2.3-11.8-7-15.1-3.8-2.6-8.1-2.8-14-.7-6.5 2.3-14 2-18.1-.8-1.8-1.2-3.9-3.4-4.6-4.7-1-1.9-1.3-15.1-1.3-55.3V566h13c16.4 0 22.1-1.2 27.1-5.7 9.7-8.8 8.8-24.2-2-31.8l-4.3-3-16.8-.3-16.8-.3-.4-15.2c-.3-12.2-.7-15.9-2.2-18.7-5.2-9.9-14.9-14.6-25.1-12.1zM477 518c-8.2 1-17.7 4.1-26 8.7-7.1 3.9-17.9 12.1-20.9 15.9l-1.9 2.4-.7-4.2c-2.2-12.8-12.4-20.9-24.7-19.5-5.6.7-9.3 2.5-13.2 6.3-6.6 6.6-6.1-3.2-6.4 126.9-.2 83.2 0 119.5.8 123.1 2.3 10.8 11.2 17 23.4 16.2 8.3-.5 13.8-4.1 17.5-11.3l2.6-4.9.3-39.4.3-39.3 3.7 3.3c9.3 8.4 22.5 15.4 35.7 18.9 11.2 3 29.7 2.9 41 0 31.6-8.4 55.4-33.5 65.2-68.7 2.6-9.4 2.7-11 2.7-31.9 0-20.8-.2-22.6-2.7-32-8.6-32-30.9-57-59.2-66.4-7.6-2.5-25.1-5.4-29.7-5-.7.1-4.2.5-7.8.9zm15.3 41.5c18.7 3.9 34.5 20.2 40.3 41.5 2.4 8.9 2.5 29 .1 38-7.9 30-32.4 47.5-60.4 43.2-20.2-3.2-35.6-17-42.7-38.2-3.7-11-4.6-28.4-2.2-40 6.7-32 34.4-51 64.9-44.5zM708.2 518c-15.6 2.2-28.2 8.1-38.2 18-3.7 3.6-7.6 7.8-8.8 9.5l-2.1 3-.1-5.4c-.1-17-17.3-27.1-32.8-19.2-4.7 2.4-6.6 4.5-9.1 10.1-2 4.4-2.1 6.2-2.1 86.5s.1 82.1 2.1 86.5c2.7 6 4.5 7.9 10.4 10.6 10.6 5 22.5 1.5 28.7-8.3l2.3-3.8.6-54.5c.6-59.8.6-59.5 7-72.1 4.3-8.5 10.9-15.3 18.8-19.2 5.7-2.8 7.5-3.2 14.1-3.1 5.1.1 9.2.8 12.8 2.3 3.6 1.4 7.4 2.1 12 2.1 5.9 0 7.5-.4 11.6-3 6.6-4.2 8.9-9.7 8.4-19.6-.3-6.3-.7-7.7-3.4-11.1-6.4-7.8-18.1-11.2-32.2-9.3zM846 518.1c-38.4 3.7-72.1 31-83.8 67.9-3.8 11.9-4.6 18.2-4.7 34.5 0 17.9 1.6 27.5 6.6 40.5 8.6 22.4 29.1 44.1 50.5 53.6 32.6 14.4 73.5 11 101.8-8.5 16.8-11.6 30.9-30.8 37.6-51.1 6.7-20.6 6.4-50.3-.8-71-10.4-30-35.3-53.7-65.7-62.5-7.4-2.1-26.7-4.8-31.5-4.4-.8.1-5.3.5-10 1zm23.5 41.4c21 4.4 37.4 21 43.1 43.5 2.2 8.7 2.3 26.4 0 35-5.1 20.2-19 35.9-37.4 42.2-5.3 1.8-8.9 2.3-17.2 2.3-8.3 0-11.9-.5-17.2-2.3-18.2-6.3-32.8-22.6-37.4-41.8-2-8.3-2.2-25.5-.5-33.9.7-3.3 3.1-9.8 5.3-14.5 11.3-23.5 36-35.8 61.3-30.5zM1173 518c-21.8 2.7-41.6 12.5-56.6 28.1-17.2 17.9-26.5 39.5-28.2 65.7-2.3 34.8 5.8 60.4 25.8 81.5 28.4 30.2 77 38.7 120.1 21.2 18-7.3 29.9-19.1 29.9-29.4-.1-7.9-6.5-16.4-13.6-17.7-8.3-1.5-13-.2-27.4 7.9-8.3 4.6-15.9 6.6-28.6 7.4-22.4 1.3-41.8-7.7-53.5-24.9-3.8-5.6-8.9-17.2-8.9-20.3 0-1.3 8.1-1.5 63.3-1.5 50.2-.1 64-.4 67-1.4 5.8-2.1 10.8-6.5 13-11.4 4-9.2.3-32.1-8.2-49.7-14.6-30.6-42.6-51.5-74.1-55.4-9.3-1.2-10.5-1.2-20-.1zm19.1 41c19 3.6 35.6 19.5 37 35.5l.4 4-48.8.3-48.9.2.7-3.2c2.5-11.6 9.7-22.9 18.5-29.1 10-7 27.5-10.3 41.1-7.7zM1389 518.1c-39.7 3.9-71.9 31.9-82 71.5-10.1 39.5.2 83 25.7 108.1 18 17.7 38.8 25.6 67.3 25.6 21.4-.1 38.5-3.6 53.7-11.3 15-7.5 19.8-13.7 19.1-24.6-.8-12.2-8.7-19-21.3-18.2-5.5.3-7.2 1-13.1 5-8.6 5.7-15.2 7.7-27.9 8.4-19 1.1-32.8-3.8-45-16-12.1-12.2-17.5-26.3-17.5-46.1 0-19.9 5.4-34.1 17.4-46 11.3-11.2 23.1-15.9 40.1-16 12.8 0 20.5 1.9 28.4 7.3 9.3 6.2 11.3 7.1 17.3 7.7 7.8.9 13.4-2.2 17.1-9.4 6-12.1 1.9-25.2-10.6-33.4-15-9.9-43.4-15.1-68.7-12.6zM1016.9 522.4c-5.9 2.1-9.6 5.3-12.3 10.8l-2.6 5.2v90c0 53.6-.4 92.9-1 96.9-.6 3.7-1.9 8.5-3 10.6-2.3 4.7-8.1 9.7-13 11.2-9.9 3.2-18.2 9.7-19.6 15.4-.3 1.4-.4 5.9-.2 9.9.3 6.3.8 8.1 3.3 11.7 5.7 8.1 14.4 10.3 28.5 7.5 21.6-4.4 38.5-20.2 46.2-43.1l2.3-7 .3-101.5c.3-113.6.7-106.8-6.9-113.3-6.3-5.4-14.5-7-22-4.3zM437 875.9c0 1.9 24.3 48.7 32 61.6 61.5 102.9 147.4 183.2 253 236.5 69.3 34.9 136.7 54.6 218 63.6 19.5 2.1 78.5 3 100.1 1.5 84.9-6 161.6-26.9 236.7-64.5 105.4-52.7 192.6-134 254.2-237.1 7.7-12.9 32-59.7 32-61.6 0-.5-6.9-.9-15.2-.8h-15.3l-5.5 11.6c-17.6 37.3-45 80-73.6 115-37 45.2-78.6 82.8-127.9 115.8-80.6 53.8-168.4 85.4-267 96.1-32.8 3.5-90.2 3-126.5-1.2C766.9 1193.5 615.4 1103 519.5 966c-16.8-24-35.2-55.5-46.5-79.3l-5.5-11.6h-15.2c-8.4-.1-15.3.3-15.3.8z"/></svg>