<svg width="811.313" height="121.46" viewBox="0 0 214.66 32.136" xmlns:xlink="http://www.w3.org/1999/xlink" xmlns="http://www.w3.org/2000/svg"><defs><linearGradient id="b"><stop style="stop-color:#065eda;stop-opacity:1" offset="0"/><stop style="stop-color:#0876d8;stop-opacity:1" offset="1"/></linearGradient><linearGradient xlink:href="#a" id="c" gradientUnits="userSpaceOnUse" gradientTransform="matrix(.14233 0 0 .21818 116.635 10.976)" x1="9.733" y1="58.701" x2="220.506" y2="58.701"/><linearGradient id="a"><stop style="stop-color:#065ad8;stop-opacity:1" offset="0"/><stop style="stop-color:#0876e5;stop-opacity:1" offset="1"/></linearGradient><linearGradient xlink:href="#b" id="d" x1="175.232" y1="33.7" x2="287.473" y2="33.28" gradientUnits="userSpaceOnUse"/><linearGradient xlink:href="#b" id="f" gradientUnits="userSpaceOnUse" x1="175.232" y1="33.7" x2="287.473" y2="33.28"/><linearGradient xlink:href="#b" id="g" gradientUnits="userSpaceOnUse" x1="175.232" y1="33.7" x2="287.473" y2="33.28"/><linearGradient xlink:href="#b" id="h" gradientUnits="userSpaceOnUse" x1="175.232" y1="33.7" x2="287.473" y2="33.28"/><linearGradient xlink:href="#b" id="i" gradientUnits="userSpaceOnUse" x1="175.232" y1="33.7" x2="287.473" y2="33.28"/><linearGradient xlink:href="#b" id="j" gradientUnits="userSpaceOnUse" x1="175.232" y1="33.7" x2="287.473" y2="33.28"/><linearGradient xlink:href="#b" id="k" gradientUnits="userSpaceOnUse" x1="175.232" y1="33.7" x2="287.473" y2="33.28"/><linearGradient xlink:href="#b" id="l" gradientUnits="userSpaceOnUse" x1="175.232" y1="33.7" x2="287.473" y2="33.28"/><linearGradient xlink:href="#b" id="m" gradientUnits="userSpaceOnUse" x1="175.232" y1="33.7" x2="287.473" y2="33.28"/><linearGradient xlink:href="#b" id="n" gradientUnits="userSpaceOnUse" x1="175.232" y1="33.7" x2="287.473" y2="33.28"/><linearGradient xlink:href="#b" id="o" gradientUnits="userSpaceOnUse" x1="175.232" y1="33.7" x2="287.473" y2="33.28"/><linearGradient xlink:href="#b" id="p" gradientUnits="userSpaceOnUse" x1="175.232" y1="33.7" x2="287.473" y2="33.28"/><linearGradient xlink:href="#b" id="q" gradientUnits="userSpaceOnUse" x1="175.232" y1="33.7" x2="287.473" y2="33.28"/><linearGradient xlink:href="#b" id="r" gradientUnits="userSpaceOnUse" x1="175.232" y1="33.7" x2="287.473" y2="33.28"/><linearGradient xlink:href="#b" id="e" gradientUnits="userSpaceOnUse" x1="175.232" y1="33.7" x2="287.473" y2="33.28"/></defs><path style="fill:url(#c);fill-opacity:1;fill-rule:nonzero;stroke:none;stroke-width:.932556;stroke-linecap:square;stroke-miterlimit:4;stroke-dasharray:none;paint-order:markers fill stroke" d="M123.6 23.783a5.566 5.566 0 0 0-5.58 5.579v15.421h.422a5.567 5.567 0 0 0 5.579-5.579v-7.209c.011-1.17 1.061-2.125 2.213-2.211h21.786v-.432a5.566 5.566 0 0 0-5.578-5.569zm5.652 9a2.227 2.227 0 0 0-2.232 2.232v7.537c0 1.236.996 2.231 2.232 2.231h7.537a2.226 2.226 0 0 0 2.232-2.231v-7.537a2.226 2.226 0 0 0-2.232-2.232zm18.347 0a5.567 5.567 0 0 0-5.579 5.58v7.191c0 1.179-1.057 2.144-2.215 2.23H118.02v.421a5.567 5.567 0 0 0 5.58 5.579h18.842a5.566 5.566 0 0 0 5.578-5.579V32.784Z" transform="translate(-118.02 -23.783)"/><g style="font-weight:700;font-size:29.9861px;font-family:Rachana;-inkscape-font-specification:&quot;Rachana Bold&quot;;text-align:center;letter-spacing:-.79375px;word-spacing:-1.32292px;text-anchor:middle;fill:url(#d);fill-opacity:1;stroke-width:5.29201;stroke-linecap:square;paint-order:markers fill stroke" transform="translate(-118.02 -23.783)"><g style="fill:url(#e);fill-opacity:1" aria-label="Taxi Gestion"><path d="M175.232 28.482H158.02V33.7h5.698v15.773h5.817V33.7h5.697z" style="font-family:Mont;-inkscape-font-specification:&quot;Mont Bold&quot;;fill:url(#f);fill-opacity:1;stroke-width:5.292"/><path d="m187.512 33.28-.57 1.26c-1.319-1.11-3.028-1.74-4.947-1.74-4.948 0-8.486 3.569-8.486 8.577 0 5.037 3.538 8.635 8.486 8.635 1.889 0 3.568-.6 4.888-1.679l.48 1.14h4.317V33.28Zm-4.767 11.815c-2.1 0-3.629-1.59-3.629-3.718 0-2.1 1.53-3.659 3.629-3.659s3.628 1.56 3.628 3.659c0 2.129-1.53 3.718-3.628 3.718z" style="font-family:Mont;-inkscape-font-specification:&quot;Mont Bold&quot;;fill:url(#g);fill-opacity:1;stroke-width:5.292"/><path d="m210.228 49.473-5.398-8.546 5.038-7.647h-6.087l-2.43 4.078-2.338-4.078h-6.177l4.977 7.797-5.367 8.396h6.177l2.699-4.768 2.669 4.768z" style="font-family:Mont;-inkscape-font-specification:&quot;Mont Bold&quot;;fill:url(#h);fill-opacity:1;stroke-width:5.292"/><path d="M210.993 49.473h5.578V33.28h-5.578z" style="font-family:Mont;-inkscape-font-specification:&quot;Mont Bold&quot;;fill:url(#i);fill-opacity:1;stroke-width:5.292"/><path d="m236.66 33.28-.72 1.38a7.85 7.85 0 0 0-5.098-1.89c-4.648 0-8.096 3.539-8.096 8.157 0 4.678 3.448 8.126 8.096 8.126a8.08 8.08 0 0 0 4.228-1.2v.48c0 1.92-1.5 3.119-3.388 3.119-1.35 0-2.729-.6-3.119-1.68h-5.367c.75 3.839 3.958 6.148 8.546 6.148 5.337 0 8.666-3.149 8.666-8.216V33.31Zm-4.888 11.185c-2.04 0-3.479-1.47-3.479-3.538 0-2.04 1.47-3.539 3.479-3.539 2.009 0 3.448 1.5 3.448 3.539 0 2.069-1.44 3.538-3.448 3.538z" style="font-family:Mont;-inkscape-font-specification:&quot;Mont Bold&quot;;fill:url(#j);fill-opacity:1;stroke-width:5.292"/><path d="M259.825 41.227c0-4.738-3.599-8.457-8.816-8.457-5.098 0-8.786 3.659-8.786 8.607 0 4.947 3.718 8.635 8.786 8.635 4.048 0 7.346-2.308 8.486-5.997h-5.578c-.51.96-1.619 1.53-2.908 1.53-1.77 0-2.939-.96-3.299-2.82h12.025c.06-.509.09-.989.09-1.498zm-8.816-4.079c1.679 0 2.848.87 3.328 2.49H247.8c.45-1.62 1.59-2.49 3.209-2.49z" style="font-family:Mont;-inkscape-font-specification:&quot;Mont Bold&quot;;fill:url(#k);fill-opacity:1;stroke-width:5.292"/><path d="M267.817 50.012c4.318 0 7.166-2.218 7.166-5.607 0-4.078-3.388-4.618-5.967-5.068-1.53-.27-2.759-.51-2.759-1.409 0-.75.6-1.2 1.5-1.2.99 0 1.679.48 1.679 1.5h5.248c-.06-3.269-2.76-5.458-6.867-5.458-4.138 0-6.927 2.1-6.927 5.338 0 3.928 3.328 4.678 5.847 5.098 1.56.24 2.789.51 2.789 1.439 0 .84-.78 1.26-1.59 1.26-1.049 0-1.888-.54-1.888-1.74h-5.368c.06 3.509 2.729 5.847 7.137 5.847z" style="font-family:Mont;-inkscape-font-specification:&quot;Mont Bold&quot;;fill:url(#l);fill-opacity:1;stroke-width:5.292"/><path d="M285.434 44.615c-1.17 0-1.889-.72-1.889-1.86v-5.157h3.928V33.28h-4.048v-4.708h-1.17L275 36.28v1.32h2.969v6.086c0 3.599 2.189 5.788 5.757 5.788h3.838v-4.858Z" style="font-family:Mont;-inkscape-font-specification:&quot;Mont Bold&quot;;fill:url(#m);fill-opacity:1;stroke-width:5.292"/><path d="M289.378 49.473h5.578V33.28h-5.578z" style="font-family:Mont;-inkscape-font-specification:&quot;Mont Bold&quot;;fill:url(#n);fill-opacity:1;stroke-width:5.292"/><path d="M305.797 50.012c5.277 0 9.085-3.628 9.085-8.635 0-5.008-3.808-8.607-9.085-8.607-5.278 0-9.056 3.599-9.056 8.607 0 5.007 3.778 8.635 9.056 8.635zm0-5.007c-2.01 0-3.479-1.47-3.479-3.599 0-2.159 1.47-3.628 3.479-3.628 2.039 0 3.508 1.5 3.508 3.628 0 2.13-1.47 3.599-3.508 3.599z" style="font-family:Mont;-inkscape-font-specification:&quot;Mont Bold&quot;;fill:url(#o);fill-opacity:1;stroke-width:5.292"/><path d="M326.443 32.83c-2.1 0-3.898.78-5.098 2.13l-.75-1.68h-3.928v16.193h5.578v-8.636c0-2.07.99-3.269 2.729-3.269 1.409 0 2.129.93 2.129 2.819v9.086h5.577v-9.866c0-4.108-2.489-6.777-6.237-6.777z" style="font-family:Mont;-inkscape-font-specification:&quot;Mont Bold&quot;;fill:url(#p);fill-opacity:1;stroke-width:5.292"/><circle style="fill:url(#q);fill-opacity:1;stroke-width:5.3159;stroke-linecap:square;paint-order:markers fill stroke" cx="213.782" cy="28.939" r="2.789"/><circle style="font-weight:700;font-size:29.9861px;font-family:Rachana;-inkscape-font-specification:&quot;Rachana Bold&quot;;text-align:center;letter-spacing:-.79375px;word-spacing:-1.32292px;text-anchor:middle;fill:url(#r);fill-opacity:1;stroke-width:5.3159;stroke-linecap:square;paint-order:markers fill stroke" cx="292.173" cy="28.878" r="2.789"/></g></g></svg>
